<?xml version="1.0" encoding="UTF-8"?>
<svg version="1.1" xmlns="http://www.w3.org/2000/svg" width="1024" height="1536">
<path d="M0 0 C-0.47939368 4.71403788 -0.96834048 8.66579301 -3 13 C-3.66 13 -4.32 13 -5 13 C-5.33 15.64 -5.66 18.28 -6 21 C-6.66 21 -7.32 21 -8 21 C-8.10441406 22.0209375 -8.20882812 23.041875 -8.31640625 24.09375 C-9.00926558 28.05294619 -10.15796756 30.91482952 -11.9375 34.5 C-14.09378499 38.98321124 -15.87453967 43.16052059 -17 48 C-17.66 48 -18.32 48 -19 48 C-19.0825 48.969375 -19.165 49.93875 -19.25 50.9375 C-19.80468066 54.83588944 -21.2259602 58.00492635 -22.89453125 61.546875 C-24.0721248 64.16005078 -25.04519454 66.79786282 -26 69.5 C-27.52062851 73.78540761 -29.2370098 77.91155476 -31.16796875 82.02734375 C-32.00014434 84.00034222 -32.53762662 85.91231411 -33 88 C-33.66 88 -34.32 88 -35 88 C-35.0825 88.94875 -35.165 89.8975 -35.25 90.875 C-35.83300325 94.9642341 -37.28628658 98.4971109 -38.87890625 102.2890625 C-40.74447112 106.80021936 -42.35731506 111.40397723 -44 116 C-44.66 116 -45.32 116 -46 116 C-46.33 118.64 -46.66 121.28 -47 124 C-47.66 124 -48.32 124 -49 124 C-49.0825 124.78375 -49.165 125.5675 -49.25 126.375 C-50.05683741 130.27471413 -51.3702113 133.62409108 -52.89453125 137.2890625 C-54.00953287 140.02337742 -55.01382376 142.77937812 -56 145.5625 C-57.52635809 149.82182338 -59.24657877 153.93195077 -61.16796875 158.02734375 C-62.00014434 160.00034222 -62.53762662 161.91231411 -63 164 C-63.66 164 -64.32 164 -65 164 C-65.0825 164.969375 -65.165 165.93875 -65.25 166.9375 C-65.8039875 170.94576252 -67.31238648 174.26424114 -69.0625 177.88671875 C-69.96285013 179.91625801 -70.53077247 181.83471045 -71 184 C-71.66 184 -72.32 184 -73 184 C-73.15855469 185.53527344 -73.15855469 185.53527344 -73.3203125 187.1015625 C-74.00317395 191.01820461 -75.11558744 193.829915 -76.875 197.375 C-78.95076662 201.70361285 -80.73322115 205.8945166 -82.1484375 210.47265625 C-83.55439781 214.64539166 -85.25662348 218.70200865 -86.93164062 222.77294922 C-88.17344233 225.81631617 -89.33386152 228.77491491 -90 232 C-90.66 232 -91.32 232 -92 232 C-92.0825 233.155 -92.165 234.31 -92.25 235.5 C-92.73966625 239.56134949 -94.07096654 242.59686693 -96.0625 246.140625 C-97.03887737 248.07710679 -97.55071257 249.88460502 -98 252 C-98.66 252 -99.32 252 -100 252 C-100.33 254.64 -100.66 257.28 -101 260 C-101.66 260 -102.32 260 -103 260 C-103.0825 260.969375 -103.165 261.93875 -103.25 262.9375 C-103.80228279 266.82681545 -105.23418996 269.96015136 -106.8984375 273.4921875 C-108.0984394 276.22410672 -109.02525388 278.97192875 -109.9375 281.8125 C-111.94573443 288.0292257 -114.40728115 294.00699413 -117 300 C-117.66 300 -118.32 300 -119 300 C-119.0825 300.969375 -119.165 301.93875 -119.25 302.9375 C-119.79984891 306.80967539 -121.21869335 309.930283 -122.87890625 313.4453125 C-124.94945628 318.16356937 -126.43942708 323.09415642 -128 328 C-128.66 328 -129.32 328 -130 328 C-130.103125 328.9075 -130.20625 329.815 -130.3125 330.75 C-131.00649813 334.03071844 -131.70085668 335.60889095 -134 338 C-134.66 338 -135.32 338 -136 338 C-136 338.66 -136 339.32 -136 340 C-137.57421875 341.55078125 -137.57421875 341.55078125 -139.6875 343.3125 C-142.96794383 346.06164784 -145.99720937 348.94877726 -149 352 C-151.30961311 354.33620463 -153.62328886 356.66835132 -155.9375 359 C-156.53240234 359.60328125 -157.12730469 360.2065625 -157.74023438 360.828125 C-161.33649046 364.44403276 -164.95297958 367.88962622 -169 371 C-169.66 371 -170.32 371 -171 371 C-171.268125 371.639375 -171.53625 372.27875 -171.8125 372.9375 C-173 375 -173 375 -176 376 C-176.33 376.99 -176.66 377.98 -177 379 C-177.66 379 -178.32 379 -179 379 C-179.33 379.99 -179.66 380.98 -180 382 C-180.66 382 -181.32 382 -182 382 C-182 382.66 -182 383.32 -182 384 C-183.4609375 385.5078125 -183.4609375 385.5078125 -185.375 387.125 C-186.00148438 387.66382813 -186.62796875 388.20265625 -187.2734375 388.7578125 C-189 390 -189 390 -191 390 C-191.3403125 390.86625 -191.3403125 390.86625 -191.6875 391.75 C-193.34761639 394.59591381 -195.39187957 395.99841921 -198 398 C-200.2359549 400.17862273 -202.422017 402.39483463 -204.578125 404.65234375 C-206.01689065 406.13650734 -207.50552592 407.57194699 -209 409 C-209.66 409 -210.32 409 -211 409 C-211.33 409.99 -211.66 410.98 -212 412 C-212.66 412 -213.32 412 -214 412 C-214 412.66 -214 413.32 -214 414 C-217.46153846 417 -217.46153846 417 -220 417 C-220 417.66 -220 418.32 -220 419 C-220.66 419 -221.32 419 -222 419 C-222.33 419.99 -222.66 420.98 -223 422 C-225.0625 423.1875 -225.0625 423.1875 -227 424 C-228.70884005 422.37660195 -230.37446717 420.70680947 -232 419 C-232 418.34 -232 417.68 -232 417 C-232.66 417 -233.32 417 -234 417 C-234 416.01 -234 415.02 -234 414 C-234.66 414 -235.32 414 -236 414 C-236.33 412.35 -236.66 410.7 -237 409 C-237.66 409 -238.32 409 -239 409 C-240.65625 406.76953125 -240.65625 406.76953125 -242.5 403.8125 C-243.1084375 402.84957031 -243.716875 401.88664062 -244.34375 400.89453125 C-245.82620404 398.30373304 -246.97690007 395.79817831 -248 393 C-248.66 393 -249.32 393 -250 393 C-250.8353125 391.4840625 -250.8353125 391.4840625 -251.6875 389.9375 C-253.22723212 387.22227346 -254.89781595 384.69929375 -256.75 382.1875 C-259 379 -259 379 -259 377 C-259.66 377 -260.32 377 -261 377 C-261.9765625 375.2421875 -262.953125 373.484375 -263.9296875 371.7265625 C-265.00897274 369.8387386 -265.00897274 369.8387386 -267 368 C-267 367.01 -267 366.02 -267 365 C-267.66 365 -268.32 365 -269 365 C-270.08154297 363.6105957 -270.08154297 363.6105957 -271.2421875 361.67578125 C-271.66886719 360.97646484 -272.09554688 360.27714844 -272.53515625 359.55664062 C-272.97730469 358.81607422 -273.41945313 358.07550781 -273.875 357.3125 C-277.32870365 351.55522117 -277.32870365 351.55522117 -281.3203125 346.16796875 C-283 344 -283 344 -283 341 C-283.66 341 -284.32 341 -285 341 C-289 334.25 -289 334.25 -289 332 C-289.66 332 -290.32 332 -291 332 C-294 327.61538462 -294 327.61538462 -294 325 C-294.66 325 -295.32 325 -296 325 C-297.40234375 323.20703125 -297.40234375 323.20703125 -298.9375 320.8125 C-299.46472656 319.99136719 -299.99195313 319.17023438 -300.53515625 318.32421875 C-301.01855469 317.55722656 -301.50195312 316.79023437 -302 316 C-302.61875 315.05125 -303.2375 314.1025 -303.875 313.125 C-305 311 -305 311 -305 308 C-305.66 308 -306.32 308 -307 308 C-308.5078125 306.35546875 -308.5078125 306.35546875 -310.125 304.1875 C-310.66382813 303.47980469 -311.20265625 302.77210938 -311.7578125 302.04296875 C-313 300 -313 300 -313 297 C-313.66 297 -314.32 297 -315 297 C-315.33 295.35 -315.66 293.7 -316 292 C-316.66 292 -317.32 292 -318 292 C-319.6366755 289.73701547 -321.14565511 287.48732888 -322.625 285.125 C-323.04523438 284.47402344 -323.46546875 283.82304688 -323.8984375 283.15234375 C-327 278.26838981 -327 278.26838981 -327 276 C-327.66 276 -328.32 276 -329 276 C-329 275.01 -329 274.02 -329 273 C-329.66 273 -330.32 273 -331 273 C-331.33 271.35 -331.66 269.7 -332 268 C-332.99 267.67 -333.98 267.34 -335 267 C-335 266.34 -335 265.68 -335 265 C-335.66 265 -336.32 265 -337 265 C-337 265.99 -337 266.98 -337 268 C-337.66 268 -338.32 268 -339 268 C-339.061875 268.78375 -339.12375 269.5675 -339.1875 270.375 C-340.3032335 275.35288793 -342.60306227 279.52453694 -345 284 C-345.66 284 -346.32 284 -347 284 C-347.11085938 284.73347656 -347.22171875 285.46695312 -347.3359375 286.22265625 C-348.03219467 289.13464946 -349.00436777 290.9372198 -350.625 293.4375 C-354.53828139 299.73807027 -357.73841279 306.34548649 -361 313 C-362.14382178 315.29267134 -363.28950625 317.58441482 -364.4375 319.875 C-364.93121094 320.86242187 -365.42492187 321.84984375 -365.93359375 322.8671875 C-366.28550781 323.57101562 -366.63742187 324.27484375 -367 325 C-367.66 325 -368.32 325 -369 325 C-369.12375 325.721875 -369.2475 326.44375 -369.375 327.1875 C-369.9904931 329.95721894 -370.88444374 332.3970354 -372 335 C-372.66 335 -373.32 335 -374 335 C-374.10183594 335.71542969 -374.20367187 336.43085937 -374.30859375 337.16796875 C-375.08855479 340.36272443 -376.32942075 342.52141337 -378.0625 345.3125 C-382.10357259 352.03930603 -385.58183903 358.98970937 -389.03271484 366.03320312 C-390.67094548 369.36424452 -392.33695732 372.68128955 -394 376 C-394.66 376 -395.32 376 -396 376 C-396.12004395 376.73355713 -396.24008789 377.46711426 -396.36376953 378.22290039 C-396.99138287 380.96238685 -397.85106557 382.97029939 -399.1796875 385.43359375 C-399.61410156 386.24763672 -400.04851562 387.06167969 -400.49609375 387.90039062 C-400.95113281 388.73763672 -401.40617188 389.57488281 -401.875 390.4375 C-402.76872018 392.10260113 -403.66196045 393.76795995 -404.5546875 395.43359375 C-404.97588867 396.21589355 -405.39708984 396.99819336 -405.83105469 397.80419922 C-407.27269276 400.51223865 -408.6478125 403.24637313 -410 406 C-410.66 406 -411.32 406 -412 406 C-412.16242188 407.09248047 -412.16242188 407.09248047 -412.328125 408.20703125 C-413.04619613 411.19203624 -414.09873126 413.11271241 -415.75 415.6875 C-418.8329987 420.65414468 -421.44614613 425.74681957 -424 431 C-424.93544352 432.87602683 -425.87288911 434.75105693 -426.8125 436.625 C-427.23144531 437.46289062 -427.65039062 438.30078125 -428.08203125 439.1640625 C-428.38496094 439.76992188 -428.68789063 440.37578125 -429 441 C-429.66 441 -430.32 441 -431 441 C-431.11214844 441.72574219 -431.22429687 442.45148438 -431.33984375 443.19921875 C-432.02961387 446.12563993 -433.05510814 448.22287809 -434.5625 450.8125 C-435.01753906 451.60269531 -435.47257813 452.39289063 -435.94140625 453.20703125 C-436.29074219 453.79871094 -436.64007813 454.39039063 -437 455 C-437.66 455 -438.32 455 -439 455 C-439.33 456.98 -439.66 458.96 -440 461 C-440.66 461 -441.32 461 -442 461 C-442.33 462.65 -442.66 464.3 -443 466 C-443.66 466 -444.32 466 -445 466 C-445.10699219 466.72703125 -445.21398437 467.4540625 -445.32421875 468.203125 C-446.05226325 471.2163034 -447.13753052 473.15485742 -448.8125 475.75 C-451.67374266 480.34177738 -453.94713548 485.00067112 -456 490 C-456.66 490 -457.32 490 -458 490 C-458.33 491.65 -458.66 493.3 -459 495 C-459.66 495 -460.32 495 -461 495 C-461.12375 495.7425 -461.2475 496.485 -461.375 497.25 C-461.95486701 499.80141485 -462.73708739 501.7267573 -464 504 C-464.66 504 -465.32 504 -466 504 C-466.33 505.65 -466.66 507.3 -467 509 C-467.66 509 -468.32 509 -469 509 C-469.33 510.98 -469.66 512.96 -470 515 C-470.66 515 -471.32 515 -472 515 C-473.07525194 517.65228812 -474.09456151 520.28368454 -475 523 C-475.66 523 -476.32 523 -477 523 C-477.07089844 523.825 -477.14179688 524.65 -477.21484375 525.5 C-478.21154779 529.94301903 -480.18350419 533.15974013 -482.5625 537 C-483.46947708 538.50216541 -484.37571552 540.00477702 -485.28125 541.5078125 C-485.73628906 542.25708008 -486.19132812 543.00634766 -486.66015625 543.77832031 C-488.67395421 547.11752611 -490.62484272 550.49120194 -492.5625 553.875 C-493.20316406 554.98617187 -493.84382813 556.09734375 -494.50390625 557.2421875 C-496.08595906 559.96718687 -496.08595906 559.96718687 -497 563 C-497.66 563 -498.32 563 -499 563 C-499.0928125 563.53496094 -499.185625 564.06992187 -499.28125 564.62109375 C-500.22913725 567.75839449 -501.80571767 570.26068476 -503.5 573.0625 C-506.10142441 577.36864736 -506.10142441 577.36864736 -508 582 C-508.66 582 -509.32 582 -510 582 C-510.185625 582.86625 -510.185625 582.86625 -510.375 583.75 C-511.00648824 586.02335767 -511.88858191 587.9253529 -513 590 C-513.66 590 -514.32 590 -515 590 C-515.0928125 590.70898438 -515.185625 591.41796875 -515.28125 592.1484375 C-516.13011076 595.5162003 -517.56638327 597.74834889 -519.5 600.625 C-521.40524764 603.47506306 -522.91435164 605.74305493 -524 609 C-524.66 609 -525.32 609 -526 609 C-526.495 611.475 -526.495 611.475 -527 614 C-527.66 614 -528.32 614 -529 614 C-529.0825 614.70125 -529.165 615.4025 -529.25 616.125 C-530.17138864 619.65698979 -531.92645814 622.01928357 -534 625 C-534.33 625.99 -534.66 626.98 -535 628 C-535.66 628 -536.32 628 -537 628 C-537.185625 628.86625 -537.185625 628.86625 -537.375 629.75 C-538.00648824 632.02335767 -538.88858191 633.9253529 -540 636 C-540.66 636 -541.32 636 -542 636 C-542.11174561 636.73500732 -542.22349121 637.47001465 -542.33862305 638.22729492 C-543.02637611 641.11057714 -543.96380587 642.89879498 -545.58203125 645.36328125 C-546.10216797 646.16830078 -546.62230469 646.97332031 -547.15820312 647.80273438 C-547.97708008 649.04506836 -547.97708008 649.04506836 -548.8125 650.3125 C-552.58439326 656.07726328 -556.04050195 661.77287214 -559 668 C-559.66 668 -560.32 668 -561 668 C-561.09667969 668.72574219 -561.19335938 669.45148437 -561.29296875 670.19921875 C-562.09922292 673.39305432 -563.33595475 675.19262525 -565.3125 677.8125 C-568.40776126 682.06052317 -570.79433313 686.23575955 -573 691 C-573.66 691 -574.32 691 -575 691 C-575.15855469 692.07314453 -575.15855469 692.07314453 -575.3203125 693.16796875 C-576.07076384 696.29484935 -577.23252235 698.55460843 -578.875 701.3125 C-579.38804687 702.19550781 -579.90109375 703.07851562 -580.4296875 703.98828125 C-580.94789063 704.65214844 -581.46609375 705.31601563 -582 706 C-582.99 706 -583.98 706 -585 706 C-583.62855756 695.74336131 -581.90987119 685.92779582 -579 676 C-577.02016207 669.02557094 -575.28668204 662.03027785 -573.74609375 654.9453125 C-573 652 -573 652 -572.03515625 649.64453125 C-570.62149351 646.03302305 -569.84069585 642.34234738 -569 638.5625 C-567.89044794 633.59985503 -566.64394676 628.81915039 -565 624 C-564.48046494 622.00498538 -563.98032078 620.00481718 -563.5 618 C-562.4979168 613.92152137 -561.38032386 609.9684311 -560 606 C-558.9785778 602.67308197 -557.99101399 599.3360867 -557 596 C-555.40714896 590.63792718 -553.76895547 585.3068664 -552 580 C-551.57959777 578.60528721 -551.16350277 577.20927388 -550.75 575.8125 C-549.20044837 570.6075958 -547.57284574 565.42843006 -545.9375 560.25 C-545.68000977 559.43378174 -545.42251953 558.61756348 -545.15722656 557.77661133 C-544.10858852 554.46214185 -543.05183254 551.15377625 -541.94140625 547.859375 C-540.86703823 544.5961493 -539.92844974 541.30760221 -539 538 C-537.77181613 533.62459495 -536.46862641 529.30097734 -535 525 C-534.34 525 -533.68 525 -533 525 C-532.67 522.03 -532.34 519.06 -532 516 C-531.34 516 -530.68 516 -530 516 C-529.9175 514.72125 -529.835 513.4425 -529.75 512.125 C-529.24569114 507.52138051 -527.85063052 503.75911813 -526.0390625 499.5234375 C-524.7161959 496.31076146 -523.74920754 493.04951297 -522.78515625 489.71484375 C-521.86960568 486.54913407 -520.90638891 483.39978278 -519.9375 480.25 C-519.61652344 479.20328125 -519.29554688 478.1565625 -518.96484375 477.078125 C-518.0123253 474.0393212 -517.01651895 471.01793182 -516 468 C-515.34 468 -514.68 468 -514 468 C-513.9175 466.88625 -513.835 465.7725 -513.75 464.625 C-513.21620828 460.33211166 -511.80769729 456.76871415 -510.12109375 452.80859375 C-508.06459836 447.65660705 -506.56689054 442.3174264 -505 437 C-504.34 437 -503.68 437 -503 437 C-502.9175 435.865625 -502.835 434.73125 -502.75 433.5625 C-502.24073484 429.45968772 -500.89462851 426.28892217 -499.12109375 422.5859375 C-496.94195458 417.55949105 -495.52671597 412.25417677 -494 407 C-493.34 407 -492.68 407 -492 407 C-491.9175 405.88625 -491.835 404.7725 -491.75 403.625 C-491.21741699 399.31868596 -489.83674323 395.65886612 -488.1328125 391.6875 C-485.41237023 385.23348525 -483.13105966 378.60646383 -480.8125 372 C-480.53986328 371.22527344 -480.26722656 370.45054687 -479.98632812 369.65234375 C-479.32348918 367.76848571 -478.66163914 365.88427976 -478 364 C-477.34 364 -476.68 364 -476 364 C-475.9175 362.88625 -475.835 361.7725 -475.75 360.625 C-475.07761677 355.34725219 -473.07966252 350.86129316 -471 346 C-469.99237138 343.54441175 -468.99083983 341.08732254 -468 338.625 C-467.7414624 337.98409424 -467.4829248 337.34318848 -467.21655273 336.68286133 C-465.24775134 331.74870474 -463.56106949 326.75124841 -461.9296875 321.6953125 C-460.8177259 318.47155828 -459.43327201 315.43424276 -458 312.34375 C-456.83196884 309.60617697 -455.91533885 306.83182958 -455 304 C-453.58490776 299.62205837 -451.93317945 295.51216818 -450 291.34375 C-448.41448451 287.62769806 -447.2516438 283.7797974 -446.01171875 279.9375 C-444.82545869 276.49322368 -443.39488139 273.22508914 -441.83203125 269.9375 C-440.99025901 267.97731675 -440.45961754 266.07988544 -440 264 C-439.34 264 -438.68 264 -438 264 C-437.9175 262.865625 -437.835 261.73125 -437.75 260.5625 C-437.23622079 256.43055738 -435.88217281 253.20681385 -434.1015625 249.47265625 C-432.89065558 246.75455667 -431.97115118 244.02057094 -431.0625 241.1875 C-429.38689613 236.01669118 -427.40818021 231.05036416 -425.28125 226.05078125 C-422.5112982 219.45525578 -420.0187292 212.74779827 -417.52734375 206.04296875 C-414.91689203 199.0225056 -412.22550796 192.0692761 -409.30078125 185.171875 C-406.70579341 178.8441569 -404.36900307 172.41503236 -402 166 C-401.34 166 -400.68 166 -400 166 C-399.67 163.36 -399.34 160.72 -399 158 C-398.34 158 -397.68 158 -397 158 C-396.87625 156.783125 -396.7525 155.56625 -396.625 154.3125 C-396.21108694 150.93520941 -395.45426549 148.10243305 -394 145 C-393.34 145 -392.68 145 -392 145 C-391.855625 143.865625 -391.71125 142.73125 -391.5625 141.5625 C-391 138 -391 138 -390 137 C-389.76924918 135.65252916 -389.58846937 134.29622435 -389.4375 132.9375 C-389.293125 131.638125 -389.14875 130.33875 -389 129 C-389.66 129 -390.32 129 -391 129 C-392.375 127.671875 -392.375 127.671875 -394 125.75 C-394.60972656 125.03070313 -395.21945312 124.31140625 -395.84765625 123.5703125 C-396.55792969 122.72210938 -397.26820313 121.87390625 -398 121 C-398.89388798 119.95517848 -399.78845376 118.91093657 -400.68359375 117.8671875 C-401.60211021 116.7869238 -402.52008166 115.70619644 -403.4375 114.625 C-403.88673828 114.10131836 -404.33597656 113.57763672 -404.79882812 113.03808594 C-408 109.22893956 -408 109.22893956 -408 107 C-408.66 107 -409.32 107 -410 107 C-410.33 105.35 -410.66 103.7 -411 102 C-407.89585298 101.97096423 -404.79174091 101.9531893 -401.6875 101.9375 C-400.36588867 101.92493164 -400.36588867 101.92493164 -399.01757812 101.91210938 C-398.17001953 101.90888672 -397.32246094 101.90566406 -396.44921875 101.90234375 C-395.66893311 101.89710693 -394.88864746 101.89187012 -394.0847168 101.88647461 C-392 102 -392 102 -389 103 C-387.11831105 103.20450054 -385.231727 103.36540202 -383.34375 103.5 C-382.23902344 103.5825 -381.13429688 103.665 -379.99609375 103.75 C-378.84238281 103.8325 -377.68867188 103.915 -376.5 104 C-374.21849556 104.16314669 -371.93722855 104.32965854 -369.65625 104.5 C-368.64369141 104.5721875 -367.63113281 104.644375 -366.58789062 104.71875 C-364 105 -364 105 -361 106 C-357.64720828 106.3075172 -354.29380703 106.5089708 -350.93359375 106.71875 C-348 107 -348 107 -346 108 C-344.06677962 108.21057771 -342.12771213 108.36861925 -340.1875 108.5 C-339.02992188 108.5825 -337.87234375 108.665 -336.6796875 108.75 C-335.46539062 108.8325 -334.25109375 108.915 -333 109 C-330.6039003 109.16279234 -328.20804724 109.32927057 -325.8125 109.5 C-324.74644531 109.5721875 -323.68039062 109.644375 -322.58203125 109.71875 C-320 110 -320 110 -318 111 C-316.01614068 111.16351899 -314.02784007 111.27452205 -312.0390625 111.359375 C-310.84539062 111.42382812 -309.65171875 111.48828125 -308.421875 111.5546875 C-305.89917283 111.68445613 -303.37564796 111.79914635 -300.8515625 111.8984375 C-299.6553125 111.96804688 -298.4590625 112.03765625 -297.2265625 112.109375 C-295.58034912 112.18623535 -295.58034912 112.18623535 -293.90087891 112.26464844 C-290.1326881 113.21985722 -289.03123706 114.76011839 -287 118 C-287 118.66 -287 119.32 -287 120 C-286.34 120 -285.68 120 -285 120 C-285 120.99 -285 121.98 -285 123 C-284.34 123 -283.68 123 -283 123 C-282.67 124.65 -282.34 126.3 -282 128 C-281.34 128 -280.68 128 -280 128 C-277.95830515 130.90548882 -277 132.40142046 -277 136 C-276.34 136 -275.68 136 -275 136 C-271 142.75 -271 142.75 -271 145 C-270.34 145 -269.68 145 -269 145 C-268.67 146.65 -268.34 148.3 -268 150 C-267.34 150 -266.68 150 -266 150 C-266 150.99 -266 151.98 -266 153 C-265.34 153 -264.68 153 -264 153 C-263.67 154.65 -263.34 156.3 -263 158 C-262.34 158 -261.68 158 -261 158 C-258.95830515 160.90548882 -258 162.40142046 -258 166 C-257.34 166 -256.68 166 -256 166 C-252 172.75 -252 172.75 -252 175 C-251.34 175 -250.68 175 -250 175 C-247.81673892 179.27113698 -245.68673918 183.50202887 -244 188 C-243.34 188 -242.68 188 -242 188 C-241.67 189.65 -241.34 191.3 -241 193 C-240.34 193 -239.68 193 -239 193 C-236 198.75 -236 198.75 -236 201 C-235.34 201 -234.68 201 -234 201 C-233.67 202.65 -233.34 204.3 -233 206 C-232.34 206 -231.68 206 -231 206 C-229.51953125 208.23828125 -229.51953125 208.23828125 -227.8125 211.3125 C-224.81808171 216.61563995 -221.63726397 221.7368964 -218.28515625 226.8203125 C-217 229 -217 229 -217 231 C-216.34 231 -215.68 231 -215 231 C-214.67 232.65 -214.34 234.3 -214 236 C-213.34 236 -212.68 236 -212 236 C-210.4921875 238.1171875 -210.4921875 238.1171875 -208.875 240.875 C-208.06675781 242.23238281 -208.06675781 242.23238281 -207.2421875 243.6171875 C-206 246 -206 246 -206 248 C-205.34 248 -204.68 248 -204 248 C-203.34 249.65 -202.68 251.3 -202 253 C-199.51740215 249.12920395 -197.79089811 245.21930837 -196.125 240.9375 C-195.59957462 239.60131999 -195.07352442 238.26538553 -194.546875 236.9296875 C-194.28712891 236.26807617 -194.02738281 235.60646484 -193.75976562 234.92480469 C-188.8981572 222.60831343 -188.8981572 222.60831343 -186 217.125 C-184.22236888 213.6830529 -182.95548178 210.15938715 -181.6875 206.5 C-179.86451026 201.25471049 -177.83367918 196.19080873 -175.5625 191.125 C-172.01578075 183.21054365 -168.95870358 175.14998203 -166 167 C-165.34 167 -164.68 167 -164 167 C-163.938125 166.0925 -163.87625 165.185 -163.8125 164.25 C-163.02898202 158.49232998 -160.34237281 153.26385624 -158 148 C-157.34 148 -156.68 148 -156 148 C-155.88011719 147.12601563 -155.76023437 146.25203125 -155.63671875 145.3515625 C-154.59837303 139.88591446 -152.25183889 135.06203565 -150 130 C-149.36771484 128.45119141 -149.36771484 128.45119141 -148.72265625 126.87109375 C-145.184264 118.84048178 -140.3778085 113.77387609 -133 109 C-132.34 109 -131.68 109 -131 109 C-131 108.34 -131 107.68 -131 107 C-130.34 107 -129.68 107 -129 107 C-128.67 106.01 -128.34 105.02 -128 104 C-127.34 104 -126.68 104 -126 104 C-126 103.34 -126 102.68 -126 102 C-124.68 101.67 -123.36 101.34 -122 101 C-122 100.34 -122 99.68 -122 99 C-120.26608049 97.39365985 -118.461909 95.8624713 -116.625 94.375 C-115.62726563 93.55773437 -114.62953125 92.74046875 -113.6015625 91.8984375 C-111 90 -111 90 -109 90 C-109 89.34 -109 88.68 -109 88 C-107.3203125 86.4921875 -107.3203125 86.4921875 -105.125 84.875 C-104.40570312 84.33617187 -103.68640625 83.79734375 -102.9453125 83.2421875 C-101 82 -101 82 -99 82 C-98.67 81.01 -98.34 80.02 -98 79 C-97.34 79 -96.68 79 -96 79 C-96 78.34 -96 77.68 -96 77 C-95.34 77 -94.68 77 -94 77 C-94 76.34 -94 75.68 -94 75 C-92.68 74.67 -91.36 74.34 -90 74 C-90 73.34 -90 72.68 -90 72 C-88.57421875 70.4921875 -88.57421875 70.4921875 -86.6875 68.875 C-86.07261719 68.33617187 -85.45773437 67.79734375 -84.82421875 67.2421875 C-83 66 -83 66 -80 66 C-79.67 65.01 -79.34 64.02 -79 63 C-78.34 63 -77.68 63 -77 63 C-77 62.34 -77 61.68 -77 61 C-73.53846154 58 -73.53846154 58 -71 58 C-71 57.34 -71 56.68 -71 56 C-69.3203125 54.4921875 -69.3203125 54.4921875 -67.125 52.875 C-66.40570312 52.33617187 -65.68640625 51.79734375 -64.9453125 51.2421875 C-63 50 -63 50 -61 50 C-60.67 49.01 -60.34 48.02 -60 47 C-59.34 47 -58.68 47 -58 47 C-58 46.34 -58 45.68 -58 45 C-56.171875 43.34375 -56.171875 43.34375 -53.75 41.5 C-52.96109375 40.8915625 -52.1721875 40.283125 -51.359375 39.65625 C-49.28862321 38.20260967 -47.2941068 37.05234257 -45 36 C-45 35.34 -45 34.68 -45 34 C-43.68 33.67 -42.36 33.34 -41 33 C-41 32.34 -41 31.68 -41 31 C-39.30725716 29.43567213 -37.54430148 27.94671428 -35.75 26.5 C-34.77546875 25.7059375 -33.8009375 24.911875 -32.796875 24.09375 C-30 22 -30 22 -27.703125 20.90625 C-25.63640234 20.0574593 -25.63640234 20.0574593 -25 17 C-23.34151823 15.98648336 -21.67334039 14.98879205 -20 14 C-18.31288577 12.3540349 -16.6454378 10.68762851 -15 9 C-11.37931034 6 -11.37931034 6 -9 6 C-9 5.34 -9 4.68 -9 4 C-3.70588235 0 -3.70588235 0 0 0 Z " fill="#030404" transform="translate(684,330)"/>
<path d="M0 0 C-0.70177877 3.23486594 -1.36476494 4.89181195 -4 7 C-4.66 7 -5.32 7 -6 7 C-6 7.66 -6 8.32 -6 9 C-9.46153846 12 -9.46153846 12 -12 12 C-12 12.66 -12 13.32 -12 14 C-13.97538928 15.39722656 -15.96061292 16.70302138 -18 18 C-22.46134611 20.99379805 -26.23685178 24.13514507 -30 28 C-33.62068966 31 -33.62068966 31 -36 31 C-36.33 31.99 -36.66 32.98 -37 34 C-40.81438392 37.50246 -45.02826417 40.44633255 -50 42 C-50 42.66 -50 43.32 -50 44 C-51.79296875 45.5859375 -51.79296875 45.5859375 -54.1875 47.375 C-56.81784807 49.35603259 -59.40230722 51.3338294 -61.9375 53.4375 C-64 55 -64 55 -66 55 C-66 55.66 -66 56.32 -66 57 C-71.41176471 61 -71.41176471 61 -74 61 C-74.33 61.99 -74.66 62.98 -75 64 C-77.5625 65.1875 -77.5625 65.1875 -80 66 C-80 66.66 -80 67.32 -80 68 C-81.6796875 69.5078125 -81.6796875 69.5078125 -83.875 71.125 C-84.59429688 71.66382813 -85.31359375 72.20265625 -86.0546875 72.7578125 C-88 74 -88 74 -90 74 C-90.33 74.99 -90.66 75.98 -91 77 C-92.77734375 78.53515625 -92.77734375 78.53515625 -94.9375 80.0625 C-97.14442927 81.63658929 -99.07911204 83.07911204 -101 85 C-103.59008309 85.18788205 -106.07230933 85.25187766 -108.66259766 85.22705078 C-109.45292892 85.22734283 -110.24326019 85.22763489 -111.05754089 85.22793579 C-113.67649214 85.22653962 -116.2951608 85.21096505 -118.9140625 85.1953125 C-120.72724248 85.19158339 -122.54042447 85.18873594 -124.35360718 85.18673706 C-129.13107851 85.17909257 -133.90842867 85.15943712 -138.68585205 85.1373291 C-143.55878052 85.1168882 -148.43172853 85.10773911 -153.3046875 85.09765625 C-162.86984497 85.07619197 -172.43491242 85.04204623 -182 85 C-183.91144908 88.69990949 -185.39134979 91.86117858 -186 96 C-186.66 96 -187.32 96 -188 96 C-188.11214844 96.84820313 -188.22429688 97.69640625 -188.33984375 98.5703125 C-189.04452684 102.23132877 -190.18511152 105.41386997 -191.5625 108.875 C-192.01753906 110.02742187 -192.47257813 111.17984375 -192.94140625 112.3671875 C-193.46541016 113.67042969 -193.46541016 113.67042969 -194 115 C-194.66 115 -195.32 115 -196 115 C-196.061875 115.9075 -196.12375 116.815 -196.1875 117.75 C-196.97101798 123.50767002 -199.65762719 128.73614376 -202 134 C-202.66 134 -203.32 134 -204 134 C-204.33 136.64 -204.66 139.28 -205 142 C-205.66 142 -206.32 142 -207 142 C-207.10441406 143.0209375 -207.20882812 144.041875 -207.31640625 145.09375 C-208.00926558 149.05294619 -209.15796756 151.91482952 -210.9375 155.5 C-213.09378499 159.98321124 -214.87453967 164.16052059 -216 169 C-216.66 169 -217.32 169 -218 169 C-218.12375 170.051875 -218.2475 171.10375 -218.375 172.1875 C-218.91140782 175.45958771 -219.63880035 178.00536076 -221 181 C-221.66 181 -222.32 181 -223 181 C-223.061875 181.9075 -223.12375 182.815 -223.1875 183.75 C-224.19811605 190.86762447 -227.71589397 197.61056919 -231 203.9375 C-233.30989362 208.40826185 -234.99711346 213.09957347 -236.765625 217.8046875 C-238.1166925 221.3020711 -239.61347089 224.70335382 -241.203125 228.09765625 C-242.01846088 230.04407082 -242.54183872 231.94285586 -243 234 C-243.66 234 -244.32 234 -245 234 C-245.12375 234.886875 -245.2475 235.77375 -245.375 236.6875 C-245.94412736 239.70387502 -246.76614436 242.20326054 -248 245 C-248.66 245 -249.32 245 -250 245 C-250.33 246.98 -250.66 248.96 -251 251 C-251.66 251 -252.32 251 -253 251 C-253.10723389 251.7230835 -253.21446777 252.44616699 -253.32495117 253.19116211 C-254.05698435 256.23710846 -255.15275338 258.2858053 -256.80078125 260.94140625 C-257.36603516 261.85470703 -257.93128906 262.76800781 -258.51367188 263.70898438 C-259.10728516 264.65064453 -259.70089844 265.59230469 -260.3125 266.5625 C-260.89451172 267.50802734 -261.47652344 268.45355469 -262.07617188 269.42773438 C-264.77114302 273.74640275 -267.29903606 277.4756322 -271 281 C-274.82126763 285.13354327 -278.12109033 289.15131003 -281 294 C-281.66 294 -282.32 294 -283 294 C-283.33 294.99 -283.66 295.98 -284 297 C-284.66 297 -285.32 297 -286 297 C-286 297.66 -286 298.32 -286 299 C-287.375 300.625 -287.375 300.625 -289 302 C-289.66 302 -290.32 302 -291 302 C-291.33 302.99 -291.66 303.98 -292 305 C-292.66 305 -293.32 305 -294 305 C-294 305.66 -294 306.32 -294 307 C-295.73391951 308.60634015 -297.538091 310.1375287 -299.375 311.625 C-300.37273437 312.44226563 -301.37046875 313.25953125 -302.3984375 314.1015625 C-305 316 -305 316 -307 316 C-307.33 316.99 -307.66 317.98 -308 319 C-310.5625 320.1875 -310.5625 320.1875 -313 321 C-313 321.66 -313 322.32 -313 323 C-318.41176471 327 -318.41176471 327 -321 327 C-321 327.66 -321 328.32 -321 329 C-323.90548882 331.04169485 -325.40142046 332 -329 332 C-329 332.66 -329 333.32 -329 334 C-331.30078125 335.65625 -331.30078125 335.65625 -334.3125 337.5 C-335.29863281 338.1084375 -336.28476562 338.716875 -337.30078125 339.34375 C-338.63689453 340.16359375 -338.63689453 340.16359375 -340 341 C-340.99 341.66 -341.98 342.32 -343 343 C-343.99 343 -344.98 343 -346 343 C-346 343.66 -346 344.32 -346 345 C-350.66666667 347.33333333 -355.33333333 349.66666667 -360 352 C-360.74765625 352.40476562 -361.4953125 352.80953125 -362.265625 353.2265625 C-364 354 -364 354 -367 354 C-367 354.66 -367 355.32 -367 356 C-368.91149668 357.0098473 -370.82941569 358.00754495 -372.75 359 C-373.81734375 359.556875 -374.8846875 360.11375 -375.984375 360.6875 C-379 362 -379 362 -383 362 C-383 362.66 -383 363.32 -383 364 C-384.98 364.33 -386.96 364.66 -389 365 C-389 365.66 -389 366.32 -389 367 C-395.5 370 -395.5 370 -400 370 C-400 370.66 -400 371.32 -400 372 C-402.31 372.33 -404.62 372.66 -407 373 C-407 373.66 -407 374.32 -407 375 C-407.67546875 375.26554687 -408.3509375 375.53109375 -409.046875 375.8046875 C-410.38492188 376.33449219 -410.38492188 376.33449219 -411.75 376.875 C-412.63171875 377.22304688 -413.5134375 377.57109375 -414.421875 377.9296875 C-416.95582782 378.92857332 -416.95582782 378.92857332 -419.078125 380.1328125 C-421 381 -421 381 -425 381 C-425 381.66 -425 382.32 -425 383 C-427.43504509 384.0063655 -429.87270864 385.00526413 -432.3125 386 C-433.00279297 386.28617188 -433.69308594 386.57234375 -434.40429688 386.8671875 C-437.41545674 388.08910744 -439.71886984 389 -443 389 C-443 389.66 -443 390.32 -443 391 C-443.67804688 391.23074219 -444.35609375 391.46148438 -445.0546875 391.69921875 C-450.90824029 393.75039445 -456.36471114 396.0693313 -461.80859375 399.046875 C-464 400 -464 400 -468 400 C-468 400.66 -468 401.32 -468 402 C-469.87144695 402.82065069 -471.74734336 403.6311584 -473.625 404.4375 C-474.66914063 404.88996094 -475.71328125 405.34242188 -476.7890625 405.80859375 C-479.88685251 406.95801705 -482.73210054 407.57311223 -486 408 C-486 408.66 -486 409.32 -486 410 C-486.59425781 410.23074219 -487.18851562 410.46148438 -487.80078125 410.69921875 C-493.49768343 412.94076813 -499.04351754 415.37966155 -504.5546875 418.046875 C-507 419 -507 419 -511 419 C-511 419.66 -511 420.32 -511 421 C-514.99637792 422.67545741 -518.99731828 424.33966317 -523 426 C-523.96292969 426.40347656 -524.92585937 426.80695313 -525.91796875 427.22265625 C-526.79066406 427.58230469 -527.66335938 427.94195313 -528.5625 428.3125 C-529.34753906 428.63863281 -530.13257813 428.96476562 -530.94140625 429.30078125 C-533 430 -533 430 -536 430 C-536 430.66 -536 431.32 -536 432 C-536.74765625 432.26554687 -537.4953125 432.53109375 -538.265625 432.8046875 C-539.25046875 433.15789062 -540.2353125 433.51109375 -541.25 433.875 C-542.22453125 434.22304688 -543.1990625 434.57109375 -544.203125 434.9296875 C-546.93875898 435.91509571 -546.93875898 435.91509571 -549.171875 437.1328125 C-551 438 -551 438 -554 438 C-554 438.66 -554 439.32 -554 440 C-555.12535156 440.42410156 -556.25070312 440.84820313 -557.41015625 441.28515625 C-565.44308517 444.3425505 -573.33964459 447.51264848 -581.09301758 451.22827148 C-586.58225363 453.84492092 -592.15433555 456.2456018 -597.75 458.625 C-604.87828531 461.65801675 -611.96912619 464.74622992 -619 468 C-621.82691441 469.29341015 -624.65568914 470.58235158 -627.48828125 471.86328125 C-629.03081908 472.56138158 -630.57058056 473.26570635 -632.10546875 473.98046875 C-635.40587031 475.4793718 -637.27867713 476 -641 476 C-641 476.66 -641 477.32 -641 478 C-642.20914063 478.50789063 -643.41828125 479.01578125 -644.6640625 479.5390625 C-660.31307141 486.00488082 -660.31307141 486.00488082 -675.80273438 492.83349609 C-679.19184122 494.37228026 -681.2001588 495 -685 495 C-685 495.66 -685 496.32 -685 497 C-691.5 500 -691.5 500 -696 500 C-696 500.66 -696 501.32 -696 502 C-698.31 502.33 -700.62 502.66 -703 503 C-703 503.66 -703 504.32 -703 505 C-703.62003906 505.21914063 -704.24007812 505.43828125 -704.87890625 505.6640625 C-716.54351613 509.84090971 -727.97187392 514.34528181 -739.09765625 519.80078125 C-742.08674809 521.03584342 -744.80055003 521.59590899 -748 522 C-747.67 520.68 -747.34 519.36 -747 518 C-746.34 518 -745.68 518 -745 518 C-745 517.34 -745 516.68 -745 516 C-742.76953125 514.34375 -742.76953125 514.34375 -739.8125 512.5 C-738.84957031 511.8915625 -737.88664063 511.283125 -736.89453125 510.65625 C-734.30373304 509.17379596 -731.79817831 508.02309993 -729 507 C-729 506.34 -729 505.68 -729 505 C-726.76953125 503.34375 -726.76953125 503.34375 -723.8125 501.5 C-722.84957031 500.8915625 -721.88664062 500.283125 -720.89453125 499.65625 C-718.30373304 498.17379596 -715.79817831 497.02309993 -713 496 C-713 495.34 -713 494.68 -713 494 C-712.01 494 -711.02 494 -710 494 C-709.67 493.01 -709.34 492.02 -709 491 C-706.671875 489.31640625 -706.671875 489.31640625 -703.75 487.5625 C-700.76091759 485.75693265 -698.01586818 484.01320028 -695.328125 481.77734375 C-693 480 -693 480 -690 480 C-690 479.34 -690 478.68 -690 478 C-687.76953125 476.34375 -687.76953125 476.34375 -684.8125 474.5 C-683.84957031 473.8915625 -682.88664062 473.283125 -681.89453125 472.65625 C-679.30373304 471.17379596 -676.79817831 470.02309993 -674 469 C-674 468.34 -674 467.68 -674 467 C-671.8828125 465.4921875 -671.8828125 465.4921875 -669.125 463.875 C-668.22007812 463.33617187 -667.31515625 462.79734375 -666.3828125 462.2421875 C-664 461 -664 461 -662 461 C-662 460.34 -662 459.68 -662 459 C-660.68 458.67 -659.36 458.34 -658 458 C-658 457.34 -658 456.68 -658 456 C-655.09451118 453.95830515 -653.59857954 453 -650 453 C-650 452.34 -650 451.68 -650 451 C-648.35 450.67 -646.7 450.34 -645 450 C-644.67 449.01 -644.34 448.02 -644 447 C-642.22265625 445.61328125 -642.22265625 445.61328125 -640.0625 444.3125 C-639.35222656 443.87550781 -638.64195312 443.43851563 -637.91015625 442.98828125 C-636 442 -636 442 -634 442 C-634 441.34 -634 440.68 -634 440 C-631.76953125 438.34375 -631.76953125 438.34375 -628.8125 436.5 C-627.84957031 435.8915625 -626.88664062 435.283125 -625.89453125 434.65625 C-623.30373304 433.17379596 -620.79817831 432.02309993 -618 431 C-618 430.34 -618 429.68 -618 429 C-616.2421875 428.0234375 -614.484375 427.046875 -612.7265625 426.0703125 C-610.8387386 424.99102726 -610.8387386 424.99102726 -609 423 C-608.01 423 -607.02 423 -606 423 C-606 422.34 -606 421.68 -606 421 C-601.61538462 418 -601.61538462 418 -599 418 C-599 417.34 -599 416.68 -599 416 C-592.25 412 -592.25 412 -590 412 C-590 411.34 -590 410.68 -590 410 C-587.76953125 408.34375 -587.76953125 408.34375 -584.8125 406.5 C-583.84957031 405.8915625 -582.88664063 405.283125 -581.89453125 404.65625 C-579.30373304 403.17379596 -576.79817831 402.02309993 -574 401 C-574 400.34 -574 399.68 -574 399 C-573.01 398.46375 -572.02 397.9275 -571 397.375 C-567.36344698 395.31699129 -564.14629703 392.8855139 -560.89453125 390.26953125 C-558.9145064 388.94271048 -557.32845928 388.42851911 -555 388 C-555 387.34 -555 386.68 -555 386 C-553.35 385.67 -551.7 385.34 -550 385 C-550 384.34 -550 383.68 -550 383 C-548.1015625 381.4921875 -548.1015625 381.4921875 -545.625 379.875 C-544.81289063 379.33617187 -544.00078125 378.79734375 -543.1640625 378.2421875 C-541 377 -541 377 -539 377 C-539 376.34 -539 375.68 -539 375 C-537.35 374.67 -535.7 374.34 -534 374 C-533.67 373.01 -533.34 372.02 -533 371 C-531.22265625 369.61328125 -531.22265625 369.61328125 -529.0625 368.3125 C-528.35222656 367.87550781 -527.64195312 367.43851563 -526.91015625 366.98828125 C-525 366 -525 366 -523 366 C-523 365.34 -523 364.68 -523 364 C-521.2421875 363.0234375 -519.484375 362.046875 -517.7265625 361.0703125 C-515.8387386 359.99102726 -515.8387386 359.99102726 -514 358 C-513.01 358 -512.02 358 -511 358 C-511 357.34 -511 356.68 -511 356 C-509.25588699 354.76337138 -507.45293515 353.60897865 -505.625 352.5 C-501.57056853 350.05783493 -501.57056853 350.05783493 -498 347 C-497.01 347 -496.02 347 -495 347 C-495 346.34 -495 345.68 -495 345 C-492.76953125 343.34375 -492.76953125 343.34375 -489.8125 341.5 C-488.84957031 340.8915625 -487.88664062 340.283125 -486.89453125 339.65625 C-484.30373304 338.17379596 -481.79817831 337.02309993 -479 336 C-479 335.34 -479 334.68 -479 334 C-477.0859375 332.625 -477.0859375 332.625 -474.375 331 C-469.86810764 328.21633119 -465.5342663 325.29524226 -461.25 322.1875 C-456.16285647 318.51428 -451.02421709 314.93203612 -445.8125 311.4375 C-445.17666992 311.00783936 -444.54083984 310.57817871 -443.88574219 310.13549805 C-441.27148489 308.3934855 -438.99569992 306.99856664 -436 306 C-436 305.34 -436 304.68 -436 304 C-435.01 304 -434.02 304 -433 304 C-433 303.34 -433 302.68 -433 302 C-431.35 301.67 -429.7 301.34 -428 301 C-427.67 300.01 -427.34 299.02 -427 298 C-425.22265625 296.61328125 -425.22265625 296.61328125 -423.0625 295.3125 C-422.35222656 294.87550781 -421.64195312 294.43851563 -420.91015625 293.98828125 C-419 293 -419 293 -417 293 C-417 292.34 -417 291.68 -417 291 C-411.58823529 287 -411.58823529 287 -409 287 C-409 286.34 -409 285.68 -409 285 C-408.01 285 -407.02 285 -406 285 C-406 284.34 -406 283.68 -406 283 C-400.58823529 279 -400.58823529 279 -398 279 C-397.67 278.01 -397.34 277.02 -397 276 C-394.4375 274.8125 -394.4375 274.8125 -392 274 C-392 273.34 -392 272.68 -392 272 C-390.26608049 270.39365985 -388.461909 268.8624713 -386.625 267.375 C-385.62726563 266.55773437 -384.62953125 265.74046875 -383.6015625 264.8984375 C-381 263 -381 263 -379 263 C-378.67 262.01 -378.34 261.02 -378 260 C-377.34 260 -376.68 260 -376 260 C-375.731875 259.360625 -375.46375 258.72125 -375.1875 258.0625 C-374 256 -374 256 -371 255 C-369.99083967 253.23408113 -369.99083967 253.23408113 -369 251 C-367 247.75 -367 247.75 -365 245 C-364.34 245 -363.68 245 -363 245 C-362.896875 244.443125 -362.79375 243.88625 -362.6875 243.3125 C-361.85821592 240.5230899 -360.65700944 238.3860936 -359 236 C-358.34 236 -357.68 236 -357 236 C-357 235.01 -357 234.02 -357 233 C-356.34 233 -355.68 233 -355 233 C-354.67 231.35 -354.34 229.7 -354 228 C-353.34 228 -352.68 228 -352 228 C-351.67 226.35 -351.34 224.7 -351 223 C-350.34 223 -349.68 223 -349 223 C-348.87625 222.2575 -348.7525 221.515 -348.625 220.75 C-348.04513299 218.19858515 -347.26291261 216.2732427 -346 214 C-345.34 214 -344.68 214 -344 214 C-343.88978516 212.77796875 -343.88978516 212.77796875 -343.77734375 211.53125 C-342.78386583 207.01816435 -340.81109525 203.50454052 -338.5625 199.5 C-335.91674597 194.74349434 -333.52390969 190.26290123 -332 185 C-331.34 185 -330.68 185 -330 185 C-329.88785156 184.30519531 -329.77570313 183.61039063 -329.66015625 182.89453125 C-328.91553885 179.62967036 -327.75599912 176.76399795 -326.4375 173.6875 C-325.98246094 172.61886719 -325.52742188 171.55023437 -325.05859375 170.44921875 C-324.70925781 169.64097656 -324.35992188 168.83273437 -324 168 C-323.34 168 -322.68 168 -322 168 C-321.9175 167.175 -321.835 166.35 -321.75 165.5 C-321.02220794 162.10363705 -319.84566134 159.44973384 -318.234375 156.390625 C-315.63358936 151.3536604 -313.35666114 146.1544409 -311 141 C-310.51789063 139.95199219 -310.03578125 138.90398437 -309.5390625 137.82421875 C-309.09304688 136.85097656 -308.64703125 135.87773438 -308.1875 134.875 C-307.59001953 133.57175781 -307.59001953 133.57175781 -306.98046875 132.2421875 C-305.91781627 129.9040383 -305.91781627 129.9040383 -305 127 C-304.34 127 -303.68 127 -303 127 C-302.9175 126.154375 -302.835 125.30875 -302.75 124.4375 C-302.02393989 121.10972447 -300.85950229 118.85227714 -299.1015625 115.96875 C-297.44349984 113.00540397 -296.30338946 109.87381733 -295.08203125 106.7109375 C-293.22729109 102.06404339 -291.10497612 97.53777639 -289 93 C-288.34 93 -287.68 93 -287 93 C-286.855625 91.865625 -286.71125 90.73125 -286.5625 89.5625 C-286 86 -286 86 -285 85 C-298.17354514 84.76334949 -311.37934275 85.26771685 -324.4375 87.0625 C-331.00660164 87.95738267 -337.37822461 88.22574234 -344 88 C-343.73298409 81.19109433 -341.38900676 76.17322137 -338.43359375 70.078125 C-336.87397217 66.72940074 -335.83384058 63.58551451 -335 60 C-334.34 60 -333.68 60 -333 60 C-332.83757812 58.45505859 -332.83757812 58.45505859 -332.671875 56.87890625 C-332.00989569 53.05713037 -330.97633937 50.38572942 -329.25 46.9375 C-327.0757932 42.41349724 -325.19356922 37.93439912 -323.5625 33.1875 C-314.22275641 6.22275641 -314.22275641 6.22275641 -309 1 C-307.01842865 0.89090192 -305.03292578 0.85308484 -303.04838562 0.84178162 C-301.74874343 0.83199248 -300.44910124 0.82220335 -299.11007595 0.81211758 C-297.65110246 0.80620671 -296.19212855 0.80039703 -294.7331543 0.79467773 C-293.20084148 0.78509563 -291.66853127 0.77508807 -290.13622379 0.76468754 C-285.92183868 0.73741272 -281.70744231 0.71647891 -277.49301624 0.69668961 C-272.99290393 0.67460744 -268.49282393 0.64713848 -263.99273682 0.6204834 C-255.25484358 0.56975361 -246.5169292 0.52492159 -237.77899277 0.48234785 C-230.73278792 0.44794347 -223.68659786 0.41129406 -216.64041138 0.37332153 C-144.42659556 -0.01424563 -72.21467857 -0.12720403 0 0 Z " fill="#030404" transform="translate(967,442)"/>
</svg>
